<svg xmlns="http://www.w3.org/2000/svg" viewBox="0 0 389.69 287.34"><g id="Слой_2" data-name="Слой 2"><g id="Слой_1-2" data-name="Слой 1"><path d="M327.14,139.53c-26.55,38.77-65.36,60.74-96.72,57.88,4.46-39,25.49-78,57.57-116.83-37.13,24.29-80.51,71.14-95.08,133.59-26.16-25.38-30.28-89.36,15.4-156C242.37,8.41,296.58-13.68,329.4,8.8S361.2,89.81,327.14,139.53Z"/><path d="M116.37,123.81C148.71,146,167,178.33,164.65,204.49c-32.57-3.73-65-21.27-97.44-48,20.26,31,59.33,67.15,111.42,79.3C157.46,257.58,104.1,261,48.48,222.93,7,194.52-11.41,149.3,7.34,121.93S74.9,95.41,116.37,123.81Z"/><path d="M313.5,191.35c-31.16,2.43-56.7,17.51-65.47,36.53,24,10.39,53.41,11.19,86.45,5.6-26.32,13.33-67.73,22.79-108.56,10.45,6,23.5,41.45,47.12,95.05,42.93,40-3.13,70.69-27,68.63-53.42S353.46,188.22,313.5,191.35Z"/></g></g></svg>